<svg width="18" height="18" viewBox="0 0 18 18" fill="none" xmlns="http://www.w3.org/2000/svg">
<path d="M8.72948 15C5.38042 15 3.70589 15 2.80618 13.9159C1.90646 12.8318 2.21505 11.1859 2.83225 7.89427C3.27116 5.55339 3.49062 4.38295 4.3238 3.69147C5.15697 3 6.34781 3 8.72948 3H9.27038C11.6521 3 12.8429 3 13.676 3.69147C14.5092 4.38291 14.7286 5.55327 15.1676 7.8939L15.1676 7.89427C15.7848 11.1859 16.0934 12.8318 15.1937 13.9159C14.294 15 12.6194 15 9.27038 15H8.72948Z" stroke="black" stroke-width="1.125"/>
<path d="M6.87817 6C7.18705 6.87389 8.0205 7.5 9.00015 7.5C9.9798 7.5 10.8133 6.87389 11.1221 6" stroke="black" stroke-width="1.125" stroke-linecap="round"/>
</svg>
