<svg width="18" height="18" viewBox="0 0 18 18" fill="none" xmlns="http://www.w3.org/2000/svg">
<path fill-rule="evenodd" clip-rule="evenodd" d="M3.74999 2.25C2.92157 2.25 2.24999 2.92157 2.24999 3.75V5.12829L1.11754 8.52563C0.825383 9.40215 1.38554 10.3045 2.24999 10.4722V15C2.24999 15.8285 2.92157 16.5 3.74999 16.5H6.74999H7.49999H10.5H11.25H14.25C15.0784 16.5 15.75 15.8285 15.75 15V10.4722C16.6144 10.3045 17.1746 9.40215 16.8824 8.52563L15.75 5.12829V3.75C15.75 2.92157 15.0784 2.25 14.25 2.25H3.74999ZM11.25 15H14.25V10.5H13.125H8.99999H4.87499H3.74999V15H6.74999V12.75C6.74999 11.5073 7.75732 10.5 8.99999 10.5C10.2427 10.5 11.25 11.5073 11.25 12.75V15ZM8.24999 15H9.74999V12.75C9.74999 12.3358 9.41422 12 8.99999 12C8.58577 12 8.24999 12.3358 8.24999 12.75V15ZM2.54057 9L3.54056 6H4.73965L4.23965 9H2.99999H2.54057ZM5.76034 9L6.26034 6H8.24999V9H5.76034ZM9.74999 9V6H11.7397L12.2396 9H9.74999ZM13.7603 9L13.2604 6H14.4594L15.4594 9H15H13.7603ZM14.25 3.75V4.5H12.375H8.99999H5.62499H3.74999V3.75H14.25Z" fill="black"/>
</svg>
