<svg width="36" height="36" viewBox="0 0 36 36" fill="none" xmlns="http://www.w3.org/2000/svg">
<path d="M0 18C0 8.05888 8.05888 0 18 0C27.9411 0 36 8.05888 36 18C36 27.9411 27.9411 36 18 36C8.05888 36 0 27.9411 0 18Z" fill="#5A0C3D"/>
<path d="M18 0.25C27.8031 0.25 35.75 8.19695 35.75 18C35.75 27.8031 27.8031 35.75 18 35.75C8.19695 35.75 0.25 27.8031 0.25 18C0.25 8.19695 8.19695 0.25 18 0.25Z" stroke="#444444" stroke-opacity="0.1" stroke-width="0.5"/>
<path d="M21.115 21.0941L24 24M22.6667 17.3333C22.6667 20.2789 20.2789 22.6667 17.3333 22.6667C14.3878 22.6667 12 20.2789 12 17.3333C12 14.3878 14.3878 12 17.3333 12C20.2789 12 22.6667 14.3878 22.6667 17.3333Z" stroke="white" stroke-width="1.5" stroke-linecap="round" stroke-linejoin="round"/>
</svg>
