<svg width="32" height="32" viewBox="0 0 32 32" fill="none" xmlns="http://www.w3.org/2000/svg">
<circle cx="16" cy="16" r="16" fill="#3D0728"/>
<path d="M23.5 11.28C22.94 11.53 22.34 11.7 21.71 11.78C22.36 11.39 22.85 10.78 23.09 10.04C22.48 10.41 21.81 10.67 21.1 10.81C20.53 10.19 19.72 9.8 18.82 9.8C17.09 9.8 15.7 11.22 15.7 12.96C15.7 13.21 15.72 13.44 15.77 13.67C13.17 13.54 10.86 12.28 9.32 10.36C9.05 10.83 8.9 11.39 8.9 11.97C8.9 13.09 9.47 14.08 10.34 14.65C9.81 14.63 9.3 14.48 8.87 14.24V14.28C8.87 15.81 9.94 17.08 11.36 17.37C11.1 17.44 10.82 17.47 10.53 17.47C10.33 17.47 10.13 17.46 9.94 17.42C10.34 18.67 11.48 19.58 12.83 19.61C11.77 20.44 10.44 20.93 9 20.93C8.75 20.93 8.51 20.92 8.27 20.89C9.63 21.77 11.25 22.28 12.98 22.28C18.81 22.28 22 17.35 22 13.08C22 12.94 22 12.8 21.99 12.66C22.61 12.21 23.14 11.65 23.5 11.28Z" fill="white"/>
</svg>
